# xmcd CD database file
#
# Track frame offsets:
#	150
#	43800
#	80290
#	103905
#	125959
#	153162
#	183825
#	202487
#	233654
#	251914
#	272716
#	291709
#
# Disc length: 4349 seconds
#
# Revision: 0
# Processed by: cddbd v1.5.2PL0 Copyright (c) Steve Scherf et al.
# Submitted via: CDex 1.51
#
DISCID=bc10fb0c
DTITLE=Alan Barnes Octet - The Music Of Duke Ellington and Billy Strayhorn
DYEAR=2008
DGENRE=Jazz
TTITLE0=Take The Duke Train
TTITLE1=Snibor
TTITLE2=Second Line
TTITLE3=Black Butterfly
TTITLE4=Fantazm
TTITLE5=Harlem Airshaft
TTITLE6=Sunswept Sunday
TTITLE7=Battle Royal
TTITLE8=Tonight I Shall Sleep (With A Smile On My Face)
TTITLE9=Fife
TTITLE10=Brown Penny
TTITLE11=La Plus Belle Africaine
EXTD=YEAR: 2008
EXTT0=
EXTT1=
EXTT2=
EXTT3=
EXTT4=
EXTT5=
EXTT6=
EXTT7=
EXTT8=
EXTT9=
EXTT10=
EXTT11=
PLAYORDER=
